<mxfile host="app.diagrams.net" modified="2021-07-01T20:30:53.346Z" agent="5.0 (Windows NT 10.0; Win64; x64) AppleWebKit/537.36 (KHTML, like Gecko) Chrome/91.0.4472.114 Safari/537.36" etag="nXw8kNwP4RwzWtl8I28A" version="14.8.3" type="github">
  <diagram id="p6vrp-_2ffqhNkOFI_xb" name="Page-1">
    <mxGraphModel dx="1422" dy="796" grid="0" gridSize="10" guides="1" tooltips="1" connect="1" arrows="1" fold="1" page="1" pageScale="1" pageWidth="1654" pageHeight="2336" math="0" shadow="0">
      <root>
        <mxCell id="0" />
        <mxCell id="1" parent="0" />
        <mxCell id="3r7t0NFq6VCYqvEyZyik-1" value="Pause" style="ellipse;whiteSpace=wrap;html=1;aspect=fixed;" vertex="1" parent="1">
          <mxGeometry x="300" y="160" width="100" height="100" as="geometry" />
        </mxCell>
        <mxCell id="3r7t0NFq6VCYqvEyZyik-2" value="GAS_UP" style="ellipse;whiteSpace=wrap;html=1;aspect=fixed;" vertex="1" parent="1">
          <mxGeometry x="580" y="140" width="100" height="100" as="geometry" />
        </mxCell>
        <mxCell id="3r7t0NFq6VCYqvEyZyik-4" value="GAS_DOWN" style="ellipse;whiteSpace=wrap;html=1;aspect=fixed;" vertex="1" parent="1">
          <mxGeometry x="120" y="400" width="100" height="100" as="geometry" />
        </mxCell>
        <mxCell id="3r7t0NFq6VCYqvEyZyik-5" value="DELAY_UP" style="ellipse;whiteSpace=wrap;html=1;aspect=fixed;" vertex="1" parent="1">
          <mxGeometry x="810" y="120" width="100" height="100" as="geometry" />
        </mxCell>
        <mxCell id="3r7t0NFq6VCYqvEyZyik-6" value="OSCILLATOR" style="ellipse;whiteSpace=wrap;html=1;aspect=fixed;" vertex="1" parent="1">
          <mxGeometry x="640" y="420" width="100" height="100" as="geometry" />
        </mxCell>
        <mxCell id="3r7t0NFq6VCYqvEyZyik-7" value="PARAMETER_UP" style="ellipse;whiteSpace=wrap;html=1;aspect=fixed;" vertex="1" parent="1">
          <mxGeometry x="1070" y="350" width="100" height="100" as="geometry" />
        </mxCell>
        <mxCell id="3r7t0NFq6VCYqvEyZyik-8" value="PARAMETER_&lt;br&gt;DOWN" style="ellipse;whiteSpace=wrap;html=1;aspect=fixed;" vertex="1" parent="1">
          <mxGeometry x="630" y="700" width="100" height="100" as="geometry" />
        </mxCell>
        <mxCell id="3r7t0NFq6VCYqvEyZyik-9" value="DELAY_MAIN" style="ellipse;whiteSpace=wrap;html=1;aspect=fixed;" vertex="1" parent="1">
          <mxGeometry x="940" y="630" width="100" height="100" as="geometry" />
        </mxCell>
        <mxCell id="3r7t0NFq6VCYqvEyZyik-10" value="DELAY_DOWN" style="ellipse;whiteSpace=wrap;html=1;aspect=fixed;" vertex="1" parent="1">
          <mxGeometry x="300" y="660" width="100" height="100" as="geometry" />
        </mxCell>
        <mxCell id="3r7t0NFq6VCYqvEyZyik-11" value="" style="curved=1;endArrow=classic;html=1;entryX=0;entryY=0.5;entryDx=0;entryDy=0;exitX=1;exitY=0.5;exitDx=0;exitDy=0;" edge="1" parent="1" source="3r7t0NFq6VCYqvEyZyik-1" target="3r7t0NFq6VCYqvEyZyik-2">
          <mxGeometry width="50" height="50" relative="1" as="geometry">
            <mxPoint x="730" y="700" as="sourcePoint" />
            <mxPoint x="780" y="650" as="targetPoint" />
            <Array as="points">
              <mxPoint x="390" y="230" />
              <mxPoint x="490" y="220" />
            </Array>
          </mxGeometry>
        </mxCell>
        <mxCell id="3r7t0NFq6VCYqvEyZyik-12" value="" style="curved=1;endArrow=classic;html=1;entryX=-0.004;entryY=0.619;entryDx=0;entryDy=0;exitX=1;exitY=0.5;exitDx=0;exitDy=0;entryPerimeter=0;" edge="1" parent="1" source="3r7t0NFq6VCYqvEyZyik-2" target="3r7t0NFq6VCYqvEyZyik-5">
          <mxGeometry width="50" height="50" relative="1" as="geometry">
            <mxPoint x="350.0000000000066" y="210" as="sourcePoint" />
            <mxPoint x="560" y="200" as="targetPoint" />
            <Array as="points">
              <mxPoint x="680" y="210" />
              <mxPoint x="760" y="220" />
            </Array>
          </mxGeometry>
        </mxCell>
        <mxCell id="3r7t0NFq6VCYqvEyZyik-13" value="" style="curved=1;endArrow=classic;html=1;entryX=0;entryY=0.5;entryDx=0;entryDy=0;exitX=1;exitY=1;exitDx=0;exitDy=0;" edge="1" parent="1" source="3r7t0NFq6VCYqvEyZyik-5" target="3r7t0NFq6VCYqvEyZyik-7">
          <mxGeometry width="50" height="50" relative="1" as="geometry">
            <mxPoint x="660" y="200" as="sourcePoint" />
            <mxPoint x="819.5999999999999" y="191.89999999999998" as="targetPoint" />
            <Array as="points">
              <mxPoint x="940" y="250" />
            </Array>
          </mxGeometry>
        </mxCell>
        <mxCell id="3r7t0NFq6VCYqvEyZyik-15" value="" style="curved=1;endArrow=classic;html=1;entryX=1;entryY=0.5;entryDx=0;entryDy=0;exitX=0.5;exitY=1;exitDx=0;exitDy=0;" edge="1" parent="1" source="3r7t0NFq6VCYqvEyZyik-5" target="3r7t0NFq6VCYqvEyZyik-6">
          <mxGeometry width="50" height="50" relative="1" as="geometry">
            <mxPoint x="905.3553390593274" y="215.35533905932743" as="sourcePoint" />
            <mxPoint x="1087" y="357.60000000000014" as="targetPoint" />
            <Array as="points">
              <mxPoint x="870" y="320" />
            </Array>
          </mxGeometry>
        </mxCell>
        <mxCell id="3r7t0NFq6VCYqvEyZyik-16" value="" style="curved=1;endArrow=classic;html=1;entryX=1;entryY=0.5;entryDx=0;entryDy=0;exitX=0.5;exitY=1;exitDx=0;exitDy=0;" edge="1" parent="1" source="3r7t0NFq6VCYqvEyZyik-7" target="3r7t0NFq6VCYqvEyZyik-9">
          <mxGeometry width="50" height="50" relative="1" as="geometry">
            <mxPoint x="905.3553390593274" y="215.35533905932743" as="sourcePoint" />
            <mxPoint x="1087" y="357.60000000000014" as="targetPoint" />
            <Array as="points">
              <mxPoint x="1130" y="550" />
            </Array>
          </mxGeometry>
        </mxCell>
        <mxCell id="3r7t0NFq6VCYqvEyZyik-17" value="" style="curved=1;endArrow=classic;html=1;entryX=1;entryY=0.5;entryDx=0;entryDy=0;exitX=0;exitY=0.5;exitDx=0;exitDy=0;" edge="1" parent="1" source="3r7t0NFq6VCYqvEyZyik-9" target="3r7t0NFq6VCYqvEyZyik-8">
          <mxGeometry width="50" height="50" relative="1" as="geometry">
            <mxPoint x="1110" y="450" as="sourcePoint" />
            <mxPoint x="1021.9000000000001" y="641" as="targetPoint" />
            <Array as="points">
              <mxPoint x="870" y="750" />
            </Array>
          </mxGeometry>
        </mxCell>
        <mxCell id="3r7t0NFq6VCYqvEyZyik-18" value="" style="curved=1;endArrow=classic;html=1;entryX=1;entryY=0.5;entryDx=0;entryDy=0;exitX=0;exitY=0.5;exitDx=0;exitDy=0;" edge="1" parent="1" source="3r7t0NFq6VCYqvEyZyik-8" target="3r7t0NFq6VCYqvEyZyik-10">
          <mxGeometry width="50" height="50" relative="1" as="geometry">
            <mxPoint x="630" y="730" as="sourcePoint" />
            <mxPoint x="420" y="800.0000000000002" as="targetPoint" />
            <Array as="points">
              <mxPoint x="560" y="800" />
            </Array>
          </mxGeometry>
        </mxCell>
        <mxCell id="3r7t0NFq6VCYqvEyZyik-19" value="" style="curved=1;endArrow=classic;html=1;entryX=1;entryY=0.5;entryDx=0;entryDy=0;exitX=0;exitY=0;exitDx=0;exitDy=0;" edge="1" parent="1" source="3r7t0NFq6VCYqvEyZyik-10">
          <mxGeometry width="50" height="50" relative="1" as="geometry">
            <mxPoint x="410" y="540.0000000000002" as="sourcePoint" />
            <mxPoint x="180.0000000000066" y="499.9999999999998" as="targetPoint" />
            <Array as="points">
              <mxPoint x="220" y="640" />
            </Array>
          </mxGeometry>
        </mxCell>
        <mxCell id="3r7t0NFq6VCYqvEyZyik-20" value="" style="endArrow=classic;html=1;exitX=1;exitY=0.5;exitDx=0;exitDy=0;entryX=0.4;entryY=1;entryDx=0;entryDy=0;entryPerimeter=0;" edge="1" parent="1" source="3r7t0NFq6VCYqvEyZyik-4" target="3r7t0NFq6VCYqvEyZyik-1">
          <mxGeometry width="50" height="50" relative="1" as="geometry">
            <mxPoint x="530" y="400" as="sourcePoint" />
            <mxPoint x="580" y="350" as="targetPoint" />
          </mxGeometry>
        </mxCell>
        <mxCell id="3r7t0NFq6VCYqvEyZyik-21" value="" style="curved=1;endArrow=classic;html=1;entryX=0.053;entryY=0.716;entryDx=0;entryDy=0;exitX=0.999;exitY=0.63;exitDx=0;exitDy=0;entryPerimeter=0;exitPerimeter=0;" edge="1" parent="1" source="3r7t0NFq6VCYqvEyZyik-6" target="3r7t0NFq6VCYqvEyZyik-7">
          <mxGeometry width="50" height="50" relative="1" as="geometry">
            <mxPoint x="809.9953390593274" y="357.7553390593274" as="sourcePoint" />
            <mxPoint x="991.64" y="500.0000000000001" as="targetPoint" />
            <Array as="points">
              <mxPoint x="860" y="490" />
            </Array>
          </mxGeometry>
        </mxCell>
        <mxCell id="3r7t0NFq6VCYqvEyZyik-23" value="" style="curved=1;endArrow=classic;html=1;entryX=0;entryY=0.5;entryDx=0;entryDy=0;exitX=0.993;exitY=0.379;exitDx=0;exitDy=0;exitPerimeter=0;" edge="1" parent="1" source="3r7t0NFq6VCYqvEyZyik-1" target="3r7t0NFq6VCYqvEyZyik-1">
          <mxGeometry width="50" height="50" relative="1" as="geometry">
            <mxPoint x="460" y="80.00000000000023" as="sourcePoint" />
            <mxPoint x="230.0000000000066" y="39.99999999999977" as="targetPoint" />
            <Array as="points">
              <mxPoint x="390" y="130" />
              <mxPoint x="350" y="120" />
              <mxPoint x="300" y="140" />
            </Array>
          </mxGeometry>
        </mxCell>
        <mxCell id="3r7t0NFq6VCYqvEyZyik-24" value="" style="curved=1;endArrow=classic;html=1;entryX=-0.005;entryY=0.334;entryDx=0;entryDy=0;entryPerimeter=0;" edge="1" parent="1" target="3r7t0NFq6VCYqvEyZyik-2">
          <mxGeometry width="50" height="50" relative="1" as="geometry">
            <mxPoint x="680" y="178" as="sourcePoint" />
            <mxPoint x="581.9999999999934" y="190" as="targetPoint" />
            <Array as="points">
              <mxPoint x="670" y="110" />
              <mxPoint x="632" y="100" />
              <mxPoint x="600" y="110" />
            </Array>
          </mxGeometry>
        </mxCell>
        <mxCell id="3r7t0NFq6VCYqvEyZyik-25" value="" style="curved=1;endArrow=classic;html=1;entryX=0;entryY=0.5;entryDx=0;entryDy=0;exitX=1;exitY=0.5;exitDx=0;exitDy=0;" edge="1" parent="1" source="3r7t0NFq6VCYqvEyZyik-5">
          <mxGeometry width="50" height="50" relative="1" as="geometry">
            <mxPoint x="911.3" y="147.89999999999998" as="sourcePoint" />
            <mxPoint x="811.9999999999934" y="160" as="targetPoint" />
            <Array as="points">
              <mxPoint x="910" y="80" />
              <mxPoint x="812" y="90" />
            </Array>
          </mxGeometry>
        </mxCell>
        <mxCell id="3r7t0NFq6VCYqvEyZyik-26" value="" style="curved=1;endArrow=classic;html=1;entryX=0.053;entryY=0.327;entryDx=0;entryDy=0;exitX=0.967;exitY=0.327;exitDx=0;exitDy=0;exitPerimeter=0;entryPerimeter=0;" edge="1" parent="1" source="3r7t0NFq6VCYqvEyZyik-7" target="3r7t0NFq6VCYqvEyZyik-7">
          <mxGeometry width="50" height="50" relative="1" as="geometry">
            <mxPoint x="1148" y="370" as="sourcePoint" />
            <mxPoint x="1049.9999999999936" y="360" as="targetPoint" />
            <Array as="points">
              <mxPoint x="1160" y="310" />
              <mxPoint x="1075" y="320" />
            </Array>
          </mxGeometry>
        </mxCell>
        <mxCell id="3r7t0NFq6VCYqvEyZyik-27" value="" style="curved=1;endArrow=classic;html=1;entryX=0;entryY=0.5;entryDx=0;entryDy=0;exitX=0.964;exitY=0.324;exitDx=0;exitDy=0;exitPerimeter=0;" edge="1" parent="1" source="3r7t0NFq6VCYqvEyZyik-6" target="3r7t0NFq6VCYqvEyZyik-6">
          <mxGeometry width="50" height="50" relative="1" as="geometry">
            <mxPoint x="730" y="430" as="sourcePoint" />
            <mxPoint x="639.9999999999936" y="420" as="targetPoint" />
            <Array as="points">
              <mxPoint x="738" y="380" />
              <mxPoint x="650" y="380" />
            </Array>
          </mxGeometry>
        </mxCell>
        <mxCell id="3r7t0NFq6VCYqvEyZyik-28" value="" style="curved=1;endArrow=classic;html=1;entryX=0.065;entryY=0.281;entryDx=0;entryDy=0;exitX=0.941;exitY=0.253;exitDx=0;exitDy=0;exitPerimeter=0;entryPerimeter=0;" edge="1" parent="1" source="3r7t0NFq6VCYqvEyZyik-9" target="3r7t0NFq6VCYqvEyZyik-9">
          <mxGeometry width="50" height="50" relative="1" as="geometry">
            <mxPoint x="1040" y="660" as="sourcePoint" />
            <mxPoint x="941.9999999999936" y="650" as="targetPoint" />
            <Array as="points">
              <mxPoint x="1040" y="570" />
              <mxPoint x="942" y="580" />
            </Array>
          </mxGeometry>
        </mxCell>
        <mxCell id="3r7t0NFq6VCYqvEyZyik-29" value="" style="curved=1;endArrow=classic;html=1;entryX=0.031;entryY=0.306;entryDx=0;entryDy=0;exitX=0.906;exitY=0.231;exitDx=0;exitDy=0;exitPerimeter=0;entryPerimeter=0;" edge="1" parent="1" source="3r7t0NFq6VCYqvEyZyik-8" target="3r7t0NFq6VCYqvEyZyik-8">
          <mxGeometry width="50" height="50" relative="1" as="geometry">
            <mxPoint x="728" y="730" as="sourcePoint" />
            <mxPoint x="629.9999999999936" y="720" as="targetPoint" />
            <Array as="points">
              <mxPoint x="728" y="640" />
              <mxPoint x="630" y="650" />
            </Array>
          </mxGeometry>
        </mxCell>
        <mxCell id="3r7t0NFq6VCYqvEyZyik-30" value="" style="curved=1;endArrow=classic;html=1;entryX=0.235;entryY=0.094;entryDx=0;entryDy=0;exitX=0.959;exitY=0.32;exitDx=0;exitDy=0;exitPerimeter=0;entryPerimeter=0;" edge="1" parent="1" source="3r7t0NFq6VCYqvEyZyik-10" target="3r7t0NFq6VCYqvEyZyik-10">
          <mxGeometry width="50" height="50" relative="1" as="geometry">
            <mxPoint x="408" y="670" as="sourcePoint" />
            <mxPoint x="309.99999999999363" y="660" as="targetPoint" />
            <Array as="points">
              <mxPoint x="380" y="630" />
              <mxPoint x="360" y="620" />
              <mxPoint x="330" y="630" />
            </Array>
          </mxGeometry>
        </mxCell>
        <mxCell id="3r7t0NFq6VCYqvEyZyik-31" value="" style="curved=1;endArrow=classic;html=1;entryX=0;entryY=0.5;entryDx=0;entryDy=0;exitX=0.915;exitY=0.238;exitDx=0;exitDy=0;exitPerimeter=0;" edge="1" parent="1" source="3r7t0NFq6VCYqvEyZyik-4" target="3r7t0NFq6VCYqvEyZyik-4">
          <mxGeometry width="50" height="50" relative="1" as="geometry">
            <mxPoint x="206.4000000000001" y="412.39999999999986" as="sourcePoint" />
            <mxPoint x="110" y="430" as="targetPoint" />
            <Array as="points">
              <mxPoint x="190" y="370" />
              <mxPoint x="160" y="360" />
              <mxPoint x="130" y="380" />
            </Array>
          </mxGeometry>
        </mxCell>
        <mxCell id="3r7t0NFq6VCYqvEyZyik-32" value="&lt;font style=&quot;font-size: 14px&quot;&gt;start=false&lt;/font&gt;" style="text;html=1;strokeColor=none;fillColor=none;align=center;verticalAlign=middle;whiteSpace=wrap;rounded=0;" vertex="1" parent="1">
          <mxGeometry x="310" y="100" width="80" height="20" as="geometry" />
        </mxCell>
        <mxCell id="3r7t0NFq6VCYqvEyZyik-34" value="&lt;font style=&quot;font-size: 14px&quot;&gt;start=true&lt;/font&gt;" style="text;html=1;strokeColor=none;fillColor=none;align=center;verticalAlign=middle;whiteSpace=wrap;rounded=0;" vertex="1" parent="1">
          <mxGeometry x="450" y="230" width="80" height="20" as="geometry" />
        </mxCell>
        <mxCell id="3r7t0NFq6VCYqvEyZyik-35" value="&lt;font style=&quot;font-size: 14px&quot;&gt;timeout&amp;lt;time_up&lt;/font&gt;" style="text;html=1;strokeColor=none;fillColor=none;align=center;verticalAlign=middle;whiteSpace=wrap;rounded=0;" vertex="1" parent="1">
          <mxGeometry x="580" y="70" width="120" height="20" as="geometry" />
        </mxCell>
        <mxCell id="3r7t0NFq6VCYqvEyZyik-36" value="&lt;font style=&quot;font-size: 14px&quot;&gt;timeout=time_up&lt;/font&gt;" style="text;html=1;strokeColor=none;fillColor=none;align=center;verticalAlign=middle;whiteSpace=wrap;rounded=0;" vertex="1" parent="1">
          <mxGeometry x="680" y="220" width="120" height="20" as="geometry" />
        </mxCell>
        <mxCell id="3r7t0NFq6VCYqvEyZyik-37" value="&lt;font style=&quot;font-size: 14px&quot;&gt;time&amp;lt;time_start&lt;/font&gt;" style="text;html=1;strokeColor=none;fillColor=none;align=center;verticalAlign=middle;whiteSpace=wrap;rounded=0;" vertex="1" parent="1">
          <mxGeometry x="810" y="60" width="127" height="20" as="geometry" />
        </mxCell>
        <mxCell id="3r7t0NFq6VCYqvEyZyik-38" value="&lt;font style=&quot;font-size: 14px&quot;&gt;time=time_start&lt;br&gt;type = UNMELTING&lt;br&gt;&lt;/font&gt;" style="text;html=1;strokeColor=none;fillColor=none;align=center;verticalAlign=middle;whiteSpace=wrap;rounded=0;" vertex="1" parent="1">
          <mxGeometry x="920" y="200" width="150" height="60" as="geometry" />
        </mxCell>
        <mxCell id="3r7t0NFq6VCYqvEyZyik-39" value="&lt;font style=&quot;font-size: 14px&quot;&gt;timeout=time_start&lt;br&gt;type = MELTING&lt;br&gt;&lt;/font&gt;" style="text;html=1;strokeColor=none;fillColor=none;align=center;verticalAlign=middle;whiteSpace=wrap;rounded=0;" vertex="1" parent="1">
          <mxGeometry x="710" y="270" width="130" height="60" as="geometry" />
        </mxCell>
        <mxCell id="3r7t0NFq6VCYqvEyZyik-40" value="&lt;font style=&quot;font-size: 14px&quot;&gt;timeout&amp;lt;delay_max&lt;/font&gt;" style="text;html=1;strokeColor=none;fillColor=none;align=center;verticalAlign=middle;whiteSpace=wrap;rounded=0;" vertex="1" parent="1">
          <mxGeometry x="630" y="360" width="120" height="20" as="geometry" />
        </mxCell>
        <mxCell id="3r7t0NFq6VCYqvEyZyik-41" value="&lt;font style=&quot;font-size: 14px&quot;&gt;timeout=delay_max&lt;/font&gt;" style="text;html=1;strokeColor=none;fillColor=none;align=center;verticalAlign=middle;whiteSpace=wrap;rounded=0;" vertex="1" parent="1">
          <mxGeometry x="813.5" y="430" width="120" height="20" as="geometry" />
        </mxCell>
        <mxCell id="3r7t0NFq6VCYqvEyZyik-42" value="&lt;font style=&quot;font-size: 14px&quot;&gt;timeout&amp;lt;time_up&lt;/font&gt;" style="text;html=1;strokeColor=none;fillColor=none;align=center;verticalAlign=middle;whiteSpace=wrap;rounded=0;" vertex="1" parent="1">
          <mxGeometry x="1060" y="290" width="120" height="20" as="geometry" />
        </mxCell>
        <mxCell id="3r7t0NFq6VCYqvEyZyik-43" value="&lt;font style=&quot;font-size: 14px&quot;&gt;timeout=time_up&lt;/font&gt;" style="text;html=1;strokeColor=none;fillColor=none;align=center;verticalAlign=middle;whiteSpace=wrap;rounded=0;" vertex="1" parent="1">
          <mxGeometry x="1100" y="580" width="120" height="20" as="geometry" />
        </mxCell>
        <mxCell id="3r7t0NFq6VCYqvEyZyik-44" value="&lt;font style=&quot;font-size: 14px&quot;&gt;start=true&lt;/font&gt;" style="text;html=1;strokeColor=none;fillColor=none;align=center;verticalAlign=middle;whiteSpace=wrap;rounded=0;" vertex="1" parent="1">
          <mxGeometry x="950" y="550" width="80" height="20" as="geometry" />
        </mxCell>
        <mxCell id="3r7t0NFq6VCYqvEyZyik-45" value="&lt;font style=&quot;font-size: 14px&quot;&gt;start=false&lt;/font&gt;" style="text;html=1;strokeColor=none;fillColor=none;align=center;verticalAlign=middle;whiteSpace=wrap;rounded=0;" vertex="1" parent="1">
          <mxGeometry x="813.5" y="690" width="80" height="20" as="geometry" />
        </mxCell>
        <mxCell id="3r7t0NFq6VCYqvEyZyik-46" value="&lt;font style=&quot;font-size: 14px&quot;&gt;timeout&amp;lt;time_down&lt;/font&gt;" style="text;html=1;strokeColor=none;fillColor=none;align=center;verticalAlign=middle;whiteSpace=wrap;rounded=0;" vertex="1" parent="1">
          <mxGeometry x="630" y="620" width="120" height="20" as="geometry" />
        </mxCell>
        <mxCell id="3r7t0NFq6VCYqvEyZyik-47" value="&lt;font style=&quot;font-size: 14px&quot;&gt;timeout=time_down&lt;/font&gt;" style="text;html=1;strokeColor=none;fillColor=none;align=center;verticalAlign=middle;whiteSpace=wrap;rounded=0;" vertex="1" parent="1">
          <mxGeometry x="470" y="770" width="120" height="20" as="geometry" />
        </mxCell>
        <mxCell id="3r7t0NFq6VCYqvEyZyik-48" value="&lt;font style=&quot;font-size: 14px&quot;&gt;timeout&amp;lt;time_delay_down&lt;/font&gt;" style="text;html=1;strokeColor=none;fillColor=none;align=center;verticalAlign=middle;whiteSpace=wrap;rounded=0;" vertex="1" parent="1">
          <mxGeometry x="310" y="590" width="120" height="20" as="geometry" />
        </mxCell>
        <mxCell id="3r7t0NFq6VCYqvEyZyik-49" value="&lt;font style=&quot;font-size: 14px&quot;&gt;timeout=time_delay_down&lt;/font&gt;" style="text;html=1;strokeColor=none;fillColor=none;align=center;verticalAlign=middle;whiteSpace=wrap;rounded=0;" vertex="1" parent="1">
          <mxGeometry x="60" y="630" width="170" height="20" as="geometry" />
        </mxCell>
        <mxCell id="3r7t0NFq6VCYqvEyZyik-50" value="&lt;font style=&quot;font-size: 14px&quot;&gt;timeout&amp;lt;time_down&lt;/font&gt;" style="text;html=1;strokeColor=none;fillColor=none;align=center;verticalAlign=middle;whiteSpace=wrap;rounded=0;" vertex="1" parent="1">
          <mxGeometry x="110" y="340" width="120" height="20" as="geometry" />
        </mxCell>
        <mxCell id="3r7t0NFq6VCYqvEyZyik-51" value="&lt;font style=&quot;font-size: 14px&quot;&gt;timeout=time_down&lt;/font&gt;" style="text;html=1;strokeColor=none;fillColor=none;align=center;verticalAlign=middle;whiteSpace=wrap;rounded=0;" vertex="1" parent="1">
          <mxGeometry x="290" y="350" width="120" height="20" as="geometry" />
        </mxCell>
      </root>
    </mxGraphModel>
  </diagram>
</mxfile>
